# xmcd
#
# Track frame offsets:
#	150
#	12463
#	22470
#	31960
#	42746
#	57832
#	74269
#	88039
#	100288
#	111127
#	123256
#	132217
#
# Disc length: 1868 seconds
#
# Revision: 1
# Processed by: cddbd v1.5.1PL0 Copyright (c) Steve Scherf et al.
# Submitted via: audiograbber 1.82.01
#
DISCID=aa074a0c
DTITLE=Various Artist - Outlaws Of Country Volume 3
DYEAR=1900
DGENRE=Country
TTITLE0=Hank Williams - Half As Much
TTITLE1=Johnny Cash - I Could Never Be Ashamed Of You
TTITLE2=Eddy Arnold - The Prisoners Song
TTITLE3=Willie Nelson - Go Away
TTITLE4=Conway Twitty - On Our Last Date
TTITLE5=Merle Haggard - Ramblin' Fever
TTITLE6=Hank Williams - Ramblin' Man
TTITLE7=Tex Ritter - High Noon
TTITLE8=Faron Young - Country Girl
TTITLE9=Red Foley - Tennessee Saturday Night
TTITLE10=Johnny Cash - Blue Train
TTITLE11=Willie Nelson - Things To Remember
EXTD=
EXTT0=
EXTT1=
EXTT2=
EXTT3=
EXTT4=
EXTT5=
EXTT6=
EXTT7=
EXTT8=
EXTT9=
EXTT10=
EXTT11=
PLAYORDER=
